<svg width="73" height="99" viewBox="0 0 73 99" fill="none" xmlns="http://www.w3.org/2000/svg">
<ellipse cx="37.0767" cy="66.7652" rx="35.5709" ry="32.2347" fill="#FDF4F4"/>
<ellipse cx="53.9198" cy="61.7972" rx="5.17565" ry="4.85254" fill="#1E1919"/>
<ellipse cx="53.9198" cy="61.7972" rx="5.17565" ry="4.85254" fill="#1E1919"/>
<ellipse cx="53.9198" cy="61.7972" rx="5.17565" ry="4.85254" fill="#1E1919"/>
<path d="M53.2715 45.0859C52.8837 43.7027 53.3802 42.1109 54.4666 41.2549L57.8318 38.603C58.963 37.7116 59.7426 36.3028 59.9624 34.7524V34.7524C60.6055 30.2185 65.3813 28.335 67.6575 31.7848C71.2955 37.2986 74.5017 42.8705 70.3972 39.8731C66.1467 36.7691 61.727 41.2542 58.7519 45.5964C57.2135 47.8417 53.9953 47.6672 53.2715 45.0859V45.0859Z" fill="#FDF4F4"/>
<path d="M20.7299 48.5116C29.5485 42.0406 30.7094 49.2157 37.1038 49.6669" stroke="black" stroke-width="7"/>
<path d="M16.373 73.4664C33.3469 92.6226 41.8944 90.3438 56.2726 74.6218" stroke="black" stroke-width="5"/>
<path d="M16.625 72.4265C30.4314 99.9588 39.5194 96.9423 56.5246 73.5819" stroke="black" stroke-width="8"/>
<ellipse cx="25.8749" cy="59.8331" rx="5.17565" ry="2.88842" fill="#1E1919"/>
<ellipse cx="25.8749" cy="59.8331" rx="5.17565" ry="2.88842" fill="#1E1919"/>
<ellipse cx="25.8749" cy="59.8331" rx="5.17565" ry="2.88842" fill="#1E1919"/>
<rect width="15.9573" height="72.4821" fill="#FDF4F4"/>
</svg>
